<svg width="82" height="40" viewBox="0 0 82 40" fill="none" xmlns="http://www.w3.org/2000/svg">
<path d="M23.6308 6H26.3253L29.4444 18.3007H27.16L26.6035 15.7966H23.3819L22.8254 18.3007H20.5264L23.6308 6ZM26.1495 13.9076L25.0073 8.44547C24.7877 7.47899 25.1831 9.45588 25.0073 8.44547C24.8316 9.45588 24.6266 10.5688 24.3923 11.5353L23.8651 13.9076H26.1495Z" fill="#161717"/>
<path d="M34.0864 6H36.239V18.3007H34.0864V6Z" fill="#161717"/>
<path d="M37.9966 15.4011V11.9013C37.9966 9.74871 38.9924 8.79688 41.3207 8.79688C43.6491 8.79688 44.5862 9.69015 44.5862 11.4181V11.916C44.5862 13.3804 43.9419 14.0393 42.4336 14.2883L40.0613 14.7129V15.4011C40.0613 16.3676 40.3249 16.6605 41.3353 16.6605C42.3458 16.6605 42.5654 16.3969 42.5654 15.5622V15.3572H44.5423V15.6062C44.5423 17.6124 43.5759 18.5349 41.2768 18.5349C38.9777 18.5349 37.9966 17.5831 37.9966 15.4011ZM41.6429 12.8385C42.3458 12.7067 42.5801 12.4871 42.5801 11.916V11.5645C42.5801 10.9348 42.2432 10.6859 41.3353 10.6859C40.4274 10.6859 40.0613 11.0081 40.0613 11.916V13.1167L41.6429 12.8385Z" fill="#161717"/>
<path d="M46.0508 15.6062C46.0508 13.6293 46.8855 12.6774 48.7452 12.6774H50.5903V11.667C50.5903 10.8177 50.3267 10.5687 49.4481 10.5687C48.5695 10.5687 48.3206 10.8177 48.3206 11.6084V11.7256H46.3144V11.6084C46.3144 9.55831 47.2223 8.67969 49.4481 8.67969C51.674 8.67969 52.6404 9.54366 52.6404 11.6084V18.1102H51.1761L50.8832 17.3048C50.179 17.9024 49.3008 18.2567 48.3791 18.3153C46.944 18.5349 46.0508 17.6416 46.0508 15.6062ZM48.877 16.5873C49.4859 16.5183 50.0689 16.3022 50.5757 15.9576V14.2736H49.1113C48.3059 14.2736 48.013 14.625 48.013 15.4744C48.013 16.3237 48.3791 16.6459 48.877 16.6459V16.5873Z" fill="#161717"/>
<path d="M54.7197 15.6063V9.00195H56.8723V15.1962C56.8723 16.0602 57.0627 16.441 57.5752 16.441C58.1784 16.3402 58.7556 16.1212 59.2739 15.7966V9.00195H61.4119V18.2421H59.7278L59.5229 17.4367C58.7341 17.9804 57.824 18.3223 56.8723 18.4325C55.5544 18.535 54.7197 17.4221 54.7197 15.6063Z" fill="#161717"/>
<path d="M6.02932 18.2422H9.58772V31.2897H14.6105V34.6431H6L6.02932 18.2422Z" fill="#161717"/>
<path d="M16.0898 31.0847C16.0898 28.4635 17.1881 27.1455 19.575 27.1455H21.918V25.8569C21.918 25.0954 21.6398 24.8611 20.7465 24.8611C19.8533 24.8611 19.6043 25.0661 19.6043 25.8569V26.0326H16.412V25.8569C16.412 23.0014 17.7006 21.8591 20.7319 21.8591C23.7631 21.8591 25.1982 23.0306 25.1982 25.9301V34.6431H22.7674L22.3281 33.6766C21.4333 34.4602 20.2951 34.9103 19.1064 34.9506C17.3053 34.9506 16.0898 33.7791 16.0898 31.0847ZM20.1608 31.9926C20.8039 31.9404 21.4163 31.6954 21.918 31.2897V29.4885H20.4537C19.5604 29.4885 19.2675 29.9132 19.2675 30.8211C19.2675 31.729 19.6775 31.9926 20.1608 31.9926Z" fill="#161717"/>
<path d="M31.7288 34.643H29.869L26.4717 22.2251H30.2205C30.2205 22.2251 30.2205 22.2251 30.2205 22.3862L30.3083 22.8402C30.5865 24.4802 31.348 29.1223 31.6556 33.9108L31.7288 34.643Z" fill="#161717"/>
<path d="M38.0845 31.0847C38.0845 28.4635 39.1828 27.1455 41.5843 27.1455H43.9273V25.8569C43.9273 25.0954 43.6344 24.8611 42.7558 24.8611C41.8772 24.8611 41.5989 25.0661 41.5989 25.8569V26.0326H38.4066V25.8569C38.4066 23.0014 39.6953 21.8591 42.7265 21.8591C45.7578 21.8591 47.2075 23.0306 47.2075 25.9301V34.6431H44.8059L44.3666 33.6766C43.4777 34.4602 42.344 34.9106 41.1597 34.9506C39.2999 34.9506 38.0845 33.7791 38.0845 31.0847ZM42.1701 31.9926C42.8126 31.9377 43.4243 31.6931 43.9273 31.2897V29.4885H42.463C41.5697 29.4885 41.2622 29.9132 41.2622 30.8211C41.2622 31.729 41.6722 31.9926 42.1701 31.9926Z" fill="#161717"/>
<path d="M50.4729 35.9754H54.2362C55.1881 35.9754 55.4663 35.6679 55.4663 34.5989V33.1346C54.631 33.7382 53.6399 34.0889 52.6108 34.145C50.7071 34.145 49.4771 32.5927 49.4771 30.2498V26.2959C49.4771 23.2501 50.9414 21.9028 53.7823 21.9028C55.5077 21.9769 57.2094 22.333 58.8197 22.9572V34.4671C58.8197 37.5862 57.3554 39.0067 54.4266 39.0067H50.5314L50.4729 35.9754ZM53.6652 31.1284C54.2812 31.0668 54.8786 30.8825 55.4224 30.5866V25.1245C54.9962 25.0175 54.5585 24.9635 54.1191 24.9634C53.1819 24.9634 52.8744 25.2416 52.8744 26.1788V29.7226C52.8744 30.733 53.0794 31.1284 53.6652 31.1284Z" fill="#161717"/>
<path d="M61.1626 30.5867V26.1936C61.1626 23.2649 62.627 21.8005 65.7753 21.8005C68.9237 21.8005 70.3002 23.1038 70.3002 25.5054V26.0325C70.3513 26.4347 70.3183 26.843 70.2033 27.2318C70.0884 27.6205 69.894 27.9811 69.6325 28.2908C69.3709 28.6005 69.048 28.8526 68.684 29.031C68.32 29.2094 67.923 29.3103 67.518 29.3274L64.4867 29.8399V30.4989C64.4867 31.5972 64.7503 31.9633 65.8339 31.9633C66.9176 31.9633 67.0933 31.6997 67.0933 30.8503V30.6453H70.2563V30.9968C70.2563 33.6912 68.7919 34.9799 65.7314 34.9799C62.6709 34.9799 61.1626 33.618 61.1626 30.5867ZM66.0829 27.1601C66.8883 27.0283 67.0933 26.794 67.0933 26.1643V25.8568C67.0933 25.1393 66.7565 24.8757 65.8047 24.8757C64.8528 24.8757 64.4867 25.2125 64.4867 26.2083V27.453L66.0829 27.1601Z" fill="#161717"/>
<path d="M31.9194 34.643H33.7792L37.1765 22.2251H33.4277C33.4277 22.2251 33.4277 22.2251 33.4277 22.3862L33.3399 22.8402C33.0616 24.4802 32.3002 29.1223 31.9926 33.9108L31.9194 34.643Z" fill="#161717"/>
<path d="M74.7229 32.0949H73.5953C72.8045 32.0949 72.4385 31.7142 72.4385 30.8942C72.4385 30.0741 72.8045 29.6934 73.5953 29.6934H73.6978V30.5866H73.5953C73.3317 30.5866 73.2731 30.5866 73.2731 30.8942C73.2731 31.2017 73.2731 31.2017 73.5953 31.2017H74.7229C74.9865 31.2017 75.0597 31.2017 75.0597 30.8795C75.0597 30.5573 75.0597 30.572 74.7229 30.572H74.635V29.6934H74.7229C75.5283 29.6934 75.8944 30.0741 75.8944 30.8795C75.8944 31.6849 75.4844 32.0949 74.7229 32.0949Z" fill="#161717"/>
<path d="M74.7229 29.2394H73.5953C72.8045 29.2394 72.4385 28.8441 72.4385 28.0094C72.4385 27.1747 72.8045 26.7793 73.5953 26.7793H74.7229C75.5283 26.7793 75.8944 27.1747 75.8944 28.0094C75.8944 28.8441 75.4844 29.2394 74.7229 29.2394ZM75.089 28.0094C75.089 27.7458 75.0157 27.6725 74.7375 27.6725H73.5953C73.3317 27.6725 73.2585 27.7458 73.2585 28.0094C73.2585 28.2729 73.2585 28.3462 73.5953 28.3462H74.7375C75.0157 28.3462 75.089 28.2729 75.089 28.0094Z" fill="#161717"/>
<path d="M72.5559 26.1643V25.4614L72.8341 25.3735C72.6449 25.1204 72.5239 24.8228 72.4827 24.5095C72.4794 24.3866 72.5106 24.2653 72.5727 24.1592C72.6348 24.0531 72.7253 23.9665 72.8341 23.9092C72.6494 23.6318 72.5293 23.3165 72.4827 22.9866C72.4827 22.5326 72.878 22.2251 73.4931 22.2251H75.8068V23.133H73.6834C73.4345 23.133 73.3173 23.133 73.3173 23.3234C73.3431 23.474 73.3979 23.6182 73.4784 23.7481H75.8068V24.6413H73.6834C73.4345 24.6413 73.3173 24.6413 73.3173 24.8463C73.3415 24.9953 73.4018 25.1361 73.4931 25.2564H75.8068V26.1643H72.5559Z" fill="#161717"/>
<path d="M74.2104 33.1785H75.8359V34.8186H74.2104V33.1785Z" fill="#161717"/>
</svg>
